<svg width="22" height="22" viewBox="0 0 22 22" fill="none" 
xmlns="http://www.w3.org/2000/svg">
<path fill-rule="evenodd" clip-rule="evenodd" d="M16 6.20001C15.5453 
6.20001 16.2241 6.20001 15.6 6.20001C14.8 4.6 13.2 3 10.4 3C7.6 3 5.64941 
4.69772 5.2 7.40001C3.42599 7.40001 2 9.19365 2 11C2.4 13 2.8 13.8 4.81738 
14.2H16.1196C18.2592 14.2 20 12.4268 20 10.2476C20 8.06832 18.1396 6.20001 
16 6.20001ZM18.8798 10.091C18.8798 11.6952 17.5852 13 15.9932 
13H5.46904C4.21777 13 3.1998 11.9745 3.1998 10.7139C3.1998 9.45294 4.21777 
8.42714 5.46904 8.42714C5.55254 8.42714 5.64369 8.43382 5.75588 
8.44748L6.12526 8.49388L6.16223 8.12271C6.39043 5.85725 8.26892 4.14887 
10.5318 4.14887C12.3832 4.14887 14.0446 5.33196 14.6664 7.0931L14.784 
7.4255L15.119 7.31841C15.4033 7.22816 15.6975 7.1824 15.9932 
7.1824C17.5852 7.1824 18.8798 8.4872 18.8798 10.091Z" fill="white"/>
<path fill-rule="evenodd" clip-rule="evenodd" d="M5.29872 15.8172C5.75667 
16.651 6.21462 17.4843 6.67304 18.3181C6.9917 18.8983 7.88184 18.3804 
7.56271 17.7996C7.10476 16.9658 6.64681 16.132 6.18838 15.2982C5.86972 
14.718 4.97958 15.2359 5.29872 15.8172Z" fill="white"/>
<path fill-rule="evenodd" clip-rule="evenodd" d="M8.70829 15.8171C9.16621 
16.6508 9.62413 17.4841 10.0821 18.3178C10.4012 18.8981 11.2913 18.3802 
10.9721 17.7994C10.5142 16.9657 10.0563 16.132 9.5979 15.2982C9.27926 
14.718 8.3887 15.2359 8.70829 15.8171Z" fill="white"/>
<path fill-rule="evenodd" clip-rule="evenodd" d="M12.2918 15.817C12.7502 
16.6507 13.2081 17.4838 13.6659 18.3175C13.9845 18.8977 14.875 18.3798 
14.5559 17.7991C14.098 16.9655 13.6397 16.1318 13.1818 15.2982C12.8632 
14.718 11.9728 15.2359 12.2918 15.817Z" fill="white"/>
<path fill-rule="evenodd" clip-rule="evenodd" d="M15.7548 15.817C16.2126 
16.6507 16.671 17.4838 17.1288 18.3174C17.4474 18.8976 18.3379 18.3797 
18.0188 17.7991C17.5605 16.9655 17.1026 16.1318 16.6447 15.2982C16.3257 
14.718 15.4357 15.2359 15.7548 15.817Z" fill="white"/>
</svg>

